<svg xmlns="http://www.w3.org/2000/svg" viewBox="0 0 128 128">
  <path fill="#F7DF1E" d="M0 0h128v128H0z"/>
  <path fill="#323330" d="M39.3 77.8c-5.6 0-10.1-1.4-13.5-4.3s-5.2-7.5-5.2-13.3v-30.5h-8.3V72c0 7.8 2.4 13.6 7.1 17.6s11.3 6.2 19.7 6.2c7.7 0 14.2-1.9 19.3-5.6s7.2-9 7.2-15.9c0-5.9-2.1-10.8-6.3-14.3s-10-5.5-17.5-5.5h-7.3v-8h6.9c7.7 0 14.4 1.7 19.3 5s7.1 7.6 7.1 14.1c0 6.5-2.5 11.8-7.5 15.6s-11.7 5.6-19.6 5.6zm34.5-6.5c-5.7 0-10.6-1.5-14.3-4.5s-6.1-7.3-6.1-12.5c0-5.1 2.2-9.5 6.5-12.5s9.4-4.5 15.9-4.5h2.7v-8h-2.7c-6.6 0-12.5 1.6-17.5 4.9s-7.3 7.5-7.3 13.5c0 6.2 2.5 11.5 7.3 15.4s11 5.8 17.5 5.8h2.7v-8h-2.7zm45.6 6.5c-5.7 0-10.6-1.5-14.3-4.5s-6.1-7.3-6.1-12.5c0-5.1 2.2-9.5 6.5-12.5s9.4-4.5 15.9-4.5h2.7v-8h-2.7c-6.6 0-12.5 1.6-17.5 4.9s-7.3 7.5-7.3 13.5c0 6.2 2.5 11.5 7.3 15.4s11 5.8 17.5 5.8h2.7v-8h-2.7z"/>
</svg>
