<svg xmlns="http://www.w3.org/2000/svg" viewBox="0 0 630 630">
  <rect width="630" height="630" fill="#F7DF1E"/>
  <path d="M423.1 492.9c-3.8-24.7-19.5-43.7-55.5-61.9-13.8-6.9-29.5-12-34.1-23.4-1.7-6.4-1.7-10.4-.8-14.6 2.7-12 16.1-15.6 26.7-12 6.9 2.7 13.4 9.3 17.4 19.7 18.4-12 18.4-12 31.1-20-4.6-10.4-7-14.9-10-19.1-10.8-15.4-26.9-24.1-51.5-24.1l-12.7 1.5c-12 3-23.3 9.3-30.5 18.4-20.3 23-14.6 63.8 9.7 80.8 23.4 17.7 57.4 21.5 62 37.4 4.6 21.1-15.3 27.7-35.1 25.3-14.6-3-22.7-10-31.4-22.9l-32 18.4c3.8 8.4 8.4 12 15.4 19.5 32.7 33.7 114.8 32.3 124.9-19.5 1.5-4.6 2.3-9.3 1.5-14.1zm-107.6-209.7h-40.4c0 37.4.2 74.7 0 112.1 0 24.4 1.3 46.7-3 53.5-7 14.1-25.7 12-34.6 9.3-8.4-4-13.4-9.7-18.4-17.4l-33.3 19.1c4.6 10.4 11.1 19.5 19.5 25.7 19.9 14.9 48.5 19.5 76.6 11.1 18.4-6 30.5-18.4 36.4-36.4 4.6-13.4 3.8-26.3 3.8-40.4.4-44.4.1-88.8.1-133.2z" fill="#000"/>
</svg>