<svg xmlns="http://www.w3.org/2000/svg" viewBox="0 0 24 24" width="32" height="32">
  <path d="M19 0h-14c-2.762 0-5 2.238-5 5v14c0 2.762 2.238 5 5 5h14c2.762 0 5-2.238 5-5v-14c0-2.762-2.238-5-5-5zm-11 19h-3v-9h3v9zm-1.5-10.271c-.966 0-1.75-.792-1.75-1.765s.784-1.765 1.75-1.765 1.75.792 1.75 1.765-.784 1.765-1.75 1.765zm13.5 10.271h-3v-4.944c0-1.181-.021-2.696-1.646-2.696-1.647 0-1.899 1.286-1.899 2.609v5.031h-3v-9h2.877v1.233h.041c.401-.759 1.379-1.558 2.837-1.558 3.035 0 3.593 1.996 3.593 4.59v4.735z"/>
</svg>
