<svg xmlns="http://www.w3.org/2000/svg" viewBox="0 0 207 124">
  <path d="M48.942 32.632h-31.8V5.728h88.25v26.95H73.55v88.19H48.942v-88.19Zm24.608 88.19V91.264l20.942-29.928h-20.942V32.633h51.784v25.62l-21.265 29.963h21.265v33.604H73.55ZM0 123.368V.632h47.257v32H25.62v58.736H47.3v32H0ZM183.087.632 207 32.87l-4.193 2.59c-6.35-8.459-12.638-16.013-19.075-24.66-.399-.367-.734-.825-1.192-1.342-.367 1.175-.404 2.032-.734 2.59-12.673 19.472-25.31 38.944-37.984 58.382-1.101 1.688-1.468 2.765.183 4.403 5.918 6.037 11.49 12.44 17.687 19.144 1.101 1.192 2.477 2.065 4.081 3.367-8.091 0-14.546.037-21.003-.037-1.651 0-3.725-1.064-5.06-2.315-8.9-8.386-17.723-16.737-26.623-25.16-2.71-2.59-3.336-1.826-5.06.806-5.555 8.674-11.338 17.275-17.182 26.014-2.063 3.082-4.444 4.007-8.01 3.965-5.248-.073-10.532 0-16.366 0l36.393-54.053L109.5.632h30.77c5.597 7.482 10.985 14.706 16.373 21.963 5.146 6.85 10.328 13.698 15.474 20.548.11.11.404.11.477.183L160.44.632h22.647Z" fill="#000"/>
</svg>

